<?xml version="1.0" encoding="UTF-8"?>
<!DOCTYPE svg PUBLIC "-//W3C//DTD SVG 1.1//EN" "http://www.w3.org/Graphics/SVG/1.1/DTD/svg11.dtd">
<svg version="1.2" width="50mm" height="50mm" viewBox="0 0 5000 5000" preserveAspectRatio="xMidYMid" fill-rule="evenodd" stroke-width="28.222" stroke-linejoin="round" xmlns="http://www.w3.org/2000/svg" xmlns:ooo="http://xml.openoffice.org/svg/export" xmlns:xlink="http://www.w3.org/1999/xlink" xmlns:presentation="http://sun.com/xmlns/staroffice/presentation" xmlns:smil="http://www.w3.org/2001/SMIL20/" xmlns:anim="urn:oasis:names:tc:opendocument:xmlns:animation:1.0" xml:space="preserve">
 <defs class="ClipPathGroup">
  <clipPath id="presentation_clip_path" clipPathUnits="userSpaceOnUse">
   <rect x="0" y="0" width="5000" height="5000"/>
  </clipPath>
 </defs>
 <defs class="TextShapeIndex">
  <g ooo:slide="id1" ooo:id-list="id3 id4 id5"/>
 </defs>
 <defs class="EmbeddedBulletChars">
  <g id="bullet-char-template(57356)" transform="scale(0.00048828125,-0.00048828125)">
   <path d="M 580,1141 L 1163,571 580,0 -4,571 580,1141 Z"/>
  </g>
  <g id="bullet-char-template(57354)" transform="scale(0.00048828125,-0.00048828125)">
   <path d="M 8,1128 L 1137,1128 1137,0 8,0 8,1128 Z"/>
  </g>
  <g id="bullet-char-template(10146)" transform="scale(0.00048828125,-0.00048828125)">
   <path d="M 174,0 L 602,739 174,1481 1456,739 174,0 Z M 1358,739 L 309,1346 659,739 1358,739 Z"/>
  </g>
  <g id="bullet-char-template(10132)" transform="scale(0.00048828125,-0.00048828125)">
   <path d="M 2015,739 L 1276,0 717,0 1260,543 174,543 174,936 1260,936 717,1481 1274,1481 2015,739 Z"/>
  </g>
  <g id="bullet-char-template(10007)" transform="scale(0.00048828125,-0.00048828125)">
   <path d="M 0,-2 C -7,14 -16,27 -25,37 L 356,567 C 262,823 215,952 215,954 215,979 228,992 255,992 264,992 276,990 289,987 310,991 331,999 354,1012 L 381,999 492,748 772,1049 836,1024 860,1049 C 881,1039 901,1025 922,1006 886,937 835,863 770,784 769,783 710,716 594,584 L 774,223 C 774,196 753,168 711,139 L 727,119 C 717,90 699,76 672,76 641,76 570,178 457,381 L 164,-76 C 142,-110 111,-127 72,-127 30,-127 9,-110 8,-76 1,-67 -2,-52 -2,-32 -2,-23 -1,-13 0,-2 Z"/>
  </g>
  <g id="bullet-char-template(10004)" transform="scale(0.00048828125,-0.00048828125)">
   <path d="M 285,-33 C 182,-33 111,30 74,156 52,228 41,333 41,471 41,549 55,616 82,672 116,743 169,778 240,778 293,778 328,747 346,684 L 369,508 C 377,444 397,411 428,410 L 1163,1116 C 1174,1127 1196,1133 1229,1133 1271,1133 1292,1118 1292,1087 L 1292,965 C 1292,929 1282,901 1262,881 L 442,47 C 390,-6 338,-33 285,-33 Z"/>
  </g>
  <g id="bullet-char-template(9679)" transform="scale(0.00048828125,-0.00048828125)">
   <path d="M 813,0 C 632,0 489,54 383,161 276,268 223,411 223,592 223,773 276,916 383,1023 489,1130 632,1184 813,1184 992,1184 1136,1130 1245,1023 1353,916 1407,772 1407,592 1407,412 1353,268 1245,161 1136,54 992,0 813,0 Z"/>
  </g>
  <g id="bullet-char-template(8226)" transform="scale(0.00048828125,-0.00048828125)">
   <path d="M 346,457 C 273,457 209,483 155,535 101,586 74,649 74,723 74,796 101,859 155,911 209,963 273,989 346,989 419,989 480,963 531,910 582,859 608,796 608,723 608,648 583,586 532,535 482,483 420,457 346,457 Z"/>
  </g>
  <g id="bullet-char-template(8211)" transform="scale(0.00048828125,-0.00048828125)">
   <path d="M -4,459 L 1135,459 1135,606 -4,606 -4,459 Z"/>
  </g>
 </defs>
 <defs class="TextEmbeddedBitmaps"/>
 <g>
  <g id="id2" class="Master_Slide">
   <g id="bg-id2" class="Background"/>
   <g id="bo-id2" class="BackgroundObjects"/>
  </g>
 </g>
 <g class="SlideGroup">
  <g>
   <g id="id1" class="Slide" clip-path="url(#presentation_clip_path)">
    <g class="Page">
     <g class="com.sun.star.drawing.CustomShape">
      <g id="id3">
       <rect class="BoundingBox" stroke="none" fill="none" x="65" y="55" width="4882" height="4881"/>
       <path fill="rgb(0,0,0)" stroke="none" d="M 2505,56 C 3888,56 4944,1112 4944,2494 4944,3876 3888,4933 2505,4933 1122,4933 66,3876 66,2494 66,1112 1122,56 2505,56 Z M 66,56 L 66,56 Z M 4945,4934 L 4945,4934 Z"/>
       <path fill="none" stroke="rgb(52,101,164)" d="M 2505,56 C 3888,56 4944,1112 4944,2494 4944,3876 3888,4933 2505,4933 1122,4933 66,3876 66,2494 66,1112 1122,56 2505,56 Z"/>
       <path fill="none" stroke="rgb(52,101,164)" d="M 66,56 L 66,56 Z"/>
       <path fill="none" stroke="rgb(52,101,164)" d="M 4945,4934 L 4945,4934 Z"/>
      </g>
     </g>
     <g class="com.sun.star.drawing.CustomShape">
      <g id="id4">
       <rect class="BoundingBox" stroke="none" fill="none" x="640" y="1728" width="4207" height="2277"/>
       <path fill="rgb(0,0,0)" stroke="none" d="M 2535,2846 C 1584,3379 838,3828 894,3833 L 1101,3854 C 1157,3859 1997,3419 2949,2886 3900,2353 4647,1904 4591,1898 L 4383,1878 C 4327,1873 3486,2313 2535,2846 L 2535,2846 Z M 791,3823 L 791,3823 Z M 4695,1909 L 4695,1909 Z"/>
       <path fill="none" stroke="rgb(255,255,255)" stroke-width="300" stroke-linejoin="round" d="M 2535,2846 C 1584,3379 838,3828 894,3833 L 1101,3854 C 1157,3859 1997,3419 2949,2886 3900,2353 4647,1904 4591,1898 L 4383,1878 C 4327,1873 3486,2313 2535,2846 L 2535,2846 Z"/>
       <path fill="rgb(102,102,102)" stroke="none" d="M 2535,2846 C 1584,3379 838,3828 894,3833 949,3839 1789,3399 2741,2866 3692,2333 4439,1884 4383,1878 4327,1873 3486,2313 2535,2846 L 2535,2846 Z M 791,3823 L 791,3823 Z M 4695,1909 L 4695,1909 Z"/>
       <path fill="none" stroke="rgb(255,255,255)" stroke-width="300" stroke-linejoin="round" d="M 2535,2846 C 1584,3379 838,3828 894,3833 949,3839 1789,3399 2741,2866 3692,2333 4439,1884 4383,1878 4327,1873 3486,2313 2535,2846 L 2535,2846 Z"/>
      </g>
     </g>
     <g class="com.sun.star.drawing.CustomShape">
      <g id="id5">
       <rect class="BoundingBox" stroke="none" fill="none" x="248" y="847" width="3203" height="1605"/>
       <path fill="rgb(0,0,0)" stroke="none" d="M 1486,2248 L 1542,2247 1600,2243 1657,2239 1716,2231 1775,2224 1834,2215 1893,2204 1952,2192 2011,2178 2069,2164 2127,2148 2183,2130 2239,2112 2294,2093 2349,2072 2401,2051 2453,2027 2503,2004 2552,1979 2599,1954 2642,1928 2685,1901 2726,1874 2765,1845 2801,1817 2834,1788 2866,1759 2895,1730 2921,1700 2945,1670 2966,1640 2984,1610 3000,1580 3012,1551 3021,1521 3028,1492 3032,1464 3033,1435 3030,1407 3025,1381 3017,1354 3007,1329 2993,1303 2975,1280 2957,1256 2935,1234 2910,1213 2882,1193 2852,1175 2820,1156 2784,1140 2747,1125 2708,1111 2666,1098 2622,1087 2577,1077 2529,1069 2480,1062 2429,1057 2377,1052 2323,1050 2269,1049 2213,1050 2156,1051 2099,1055 2037,1203 2081,1200 2123,1199 2165,1198 2206,1199 2246,1201 2286,1204 2323,1207 2361,1213 2396,1220 2430,1227 2463,1235 2494,1244 2524,1254 2553,1266 2579,1279 2604,1291 2626,1306 2646,1321 2665,1337 2682,1354 2697,1370 2709,1389 2720,1407 2728,1427 2733,1447 2738,1466 2740,1487 2739,1509 2737,1530 2731,1552 2724,1574 2715,1596 2703,1619 2690,1641 2673,1664 2656,1686 2636,1708 2614,1731 2591,1753 2565,1774 2538,1795 2510,1816 2479,1837 2447,1857 2413,1877 2378,1896 2342,1915 2304,1932 2266,1949 2226,1965 2185,1981 2144,1995 2101,2009 2058,2023 2015,2034 1972,2045 1928,2056 1883,2065 1840,2072 1794,2079 1751,2085 1706,2090 1663,2093 1620,2096 1578,2097 1486,2248 Z M 3300,997 L 3300,997 Z M 398,2301 L 398,2301 Z"/>
       <path fill="none" stroke="rgb(255,255,255)" stroke-width="300" stroke-linejoin="round" d="M 1486,2248 L 1542,2247 1600,2243 1657,2239 1716,2231 1775,2224 1834,2215 1893,2204 1952,2192 2011,2178 2069,2164 2127,2148 2183,2130 2239,2112 2294,2093 2349,2072 2401,2051 2453,2027 2503,2004 2552,1979 2599,1954 2642,1928 2685,1901 2726,1874 2765,1845 2801,1817 2834,1788 2866,1759 2895,1730 2921,1700 2945,1670 2966,1640 2984,1610 3000,1580 3012,1551 3021,1521 3028,1492 3032,1464 3033,1435 3030,1407 3025,1381 3017,1354 3007,1329 2993,1303 2975,1280 2957,1256 2935,1234 2910,1213 2882,1193 2852,1175 2820,1156 2784,1140 2747,1125 2708,1111 2666,1098 2622,1087 2577,1077 2529,1069 2480,1062 2429,1057 2377,1052 2323,1050 2269,1049 2213,1050 2156,1051 2099,1055 2037,1203 2081,1200 2123,1199 2165,1198 2206,1199 2246,1201 2286,1204 2323,1207 2361,1213 2396,1220 2430,1227 2463,1235 2494,1244 2524,1254 2553,1266 2579,1279 2604,1291 2626,1306 2646,1321 2665,1337 2682,1354 2697,1370 2709,1389 2720,1407 2728,1427 2733,1447 2738,1466 2740,1487 2739,1509 2737,1530 2731,1552 2724,1574 2715,1596 2703,1619 2690,1641 2673,1664 2656,1686 2636,1708 2614,1731 2591,1753 2565,1774 2538,1795 2510,1816 2479,1837 2447,1857 2413,1877 2378,1896 2342,1915 2304,1932 2266,1949 2226,1965 2185,1981 2144,1995 2101,2009 2058,2023 2015,2034 1972,2045 1928,2056 1883,2065 1840,2072 1794,2079 1751,2085 1706,2090 1663,2093 1620,2096 1578,2097 1486,2248 Z"/>
      </g>
     </g>
    </g>
   </g>
  </g>
 </g>
</svg>